Coordinates
version=1
nRows=7
nColumns=40
inDegrees=yes

Units are S.I. units (second, meters, Newtons, ...)
Angles are in degrees.

endheader
time	pelvis_tilt	pelvis_list	pelvis_rotation	pelvis_tx	pelvis_ty	pelvis_tz	hip_flexion_r	hip_adduction_r	hip_rotation_r	knee_angle_r	knee_angle_r_beta	ankle_angle_r	subtalar_angle_r	mtp_angle_r	hip_flexion_l	hip_adduction_l	hip_rotation_l	knee_angle_l	knee_angle_l_beta	ankle_angle_l	subtalar_angle_l	mtp_angle_l	lumbar_extension	lumbar_bending	lumbar_rotation	arm_flex_r	arm_add_r	arm_rot_r	elbow_flex_r	pro_sup_r	wrist_flex_r	wrist_dev_r	arm_flex_l	arm_add_l	arm_rot_l	elbow_flex_l	pro_sup_l	wrist_flex_l	wrist_dev_l
     33.89000000	     -4.37304330	     -4.52234518	     -0.94918563	      0.79361669	      0.93113206	      0.41557196	     27.50711349	     -5.86133260	     -9.13922532	     62.16430022	     62.16430022	      2.82938480	    -17.77180622	      4.63850789	     16.02918406	     -5.02961841	     -7.87969299	     22.49568116	     22.49568116	     12.96979980	     -9.89364951	     -1.13667696	     -9.39896145	      3.39867312	      1.98555266	      6.00320757	    -13.77487907	      5.12914757	     42.46419107	     45.94798309	      0.00000000	      0.00000000	     11.40691212	    -16.14982887	     -6.81208007	     52.97571756	     46.46998969	      0.00000000	      0.00000000
     33.90300000	     -4.49130681	     -4.55404875	     -1.27100373	      0.79286837	      0.93162083	      0.41560020	     28.42974582	     -5.57829699	     -9.06783920	     60.39275079	     60.39275079	      2.87785255	    -17.48165037	      4.31051001	     15.36700542	     -5.12631639	     -8.41360621	     21.95229175	     21.95229175	     13.19790626	     -9.37017515	     -1.34048089	     -9.49870904	      3.43940258	      2.01620186	      4.71100691	    -14.33283051	      4.99229674	     41.03525088	     45.99480669	      0.00000000	      0.00000000	     12.19045114	    -16.44942077	     -7.12588042	     53.98967787	     46.52290285	      0.00000000	      0.00000000
     33.91600000	     -4.58296501	     -4.58532968	     -1.58302833	      0.79219828	      0.93210032	      0.41563326	     29.17601230	     -5.27502057	     -9.00913292	     58.37729622	     58.37729622	      2.80043669	    -17.11395200	      3.80200821	     14.65893608	     -5.21366792	     -8.96532603	     21.37972140	     21.37972140	     13.39728018	     -8.79860813	     -1.60968372	     -9.61191844	      3.47222690	      2.06461121	      3.51772493	    -14.80346069	      4.66355071	     39.29060272	     46.06445772	      0.00000000	      0.00000000	     12.87064703	    -16.73697288	     -7.52946471	     55.31837651	     46.58753080	      0.00000000	      0.00000000
     33.92900000	     -4.68392431	     -4.60540492	     -1.87030995	      0.79158138	      0.93250805	      0.41571469	     29.78834858	     -4.96598211	     -8.96661631	     56.12780629	     56.12780629	      2.71930121	    -16.65217008	      3.32873286	     13.96408050	     -5.27049370	     -9.46709674	     20.79402171	     20.79402171	     13.56690998	     -8.30010153	     -1.86337415	     -9.71130011	      3.49783622	      1.97994811	      2.45380075	    -15.19106782	      4.21699681	     37.57189204	     46.14179051	      0.00000000	      0.00000000	     13.42436513	    -17.08165974	     -7.98100481	     56.63182399	     46.65431874	      0.00000000	      0.00000000
     33.94200000	     -4.82607987	     -4.61883181	     -2.13673356	      0.79102030	      0.93270774	      0.41586712	     30.25969137	     -4.67504641	     -8.98473788	     53.53427777	     53.53427777	      2.08222782	    -16.29777837	      1.31142246	     13.36326508	     -5.34589720	    -10.04185392	     20.28306278	     20.28306278	     13.61050839	     -7.70498956	     -2.66817000	     -9.73015375	      3.49477993	      1.20328194	      2.54394649	    -14.82190880	      2.12716468	     33.82237767	     46.37890172	      0.00000000	      0.00000000	     13.04947877	    -17.68305757	     -9.22827626	     59.04310133	     46.81887529	      0.00000000	      0.00000000
     33.95500000	     -4.91095816	     -4.57521709	     -2.40749769	      0.79055821	      0.93300945	      0.41610366	     30.60572369	     -4.38342434	     -8.88965933	     50.83477704	     50.83477704	      2.18124046	    -15.51006374	      1.31490431	     12.60204045	     -5.27464758	    -10.39249341	     19.58057179	     19.58057179	     13.77056964	     -7.42360896	     -2.66981209	     -9.82732688	      3.44944247	      1.25309468	      1.28015198	    -15.33872703	      1.84828428	     32.91980169	     46.41566014	      0.00000000	      0.00000000	     13.79042217	    -17.90032690	     -9.59062948	     59.87849989	     46.87216906	      0.00000000	      0.00000000
     33.96800000	     -5.10157363	     -4.55631581	     -2.62865899	      0.79012107	      0.93301840	      0.41641202	     30.93076433	     -4.07617568	     -8.86879928	     47.89131220	     47.89131220	      2.30429707	    -14.55404129	      1.36327109	     12.03629296	     -5.24285974	    -10.69454359	     19.00698318	     19.00698318	     13.95480404	     -7.13021810	     -2.75419563	     -9.76458190	      3.46365507	      1.09574826	      0.09199156	    -15.76674505	      1.61854318	     32.18402079	     46.44704285	      0.00000000	      0.00000000	     14.31781634	    -18.20833483	     -9.87934153	     60.59189588	     46.91301058	      0.00000000	      0.00000000
